<svg version="1.1" id="Capa_1" xmlns="http://www.w3.org/2000/svg" xmlns:xlink="http://www.w3.org/1999/xlink" x="0px" y="0px" viewBox="0 0 512 512" style="enable-background:new 0 0 512 512;" xml:space="preserve" transform="scale(-1, -1)">
<path style="fill:#ACE3FC;" d="M255.999,69.997c-102.562,0-186.002,83.44-186.002,186.002s83.44,186.002,186.002,186.002
	s186.002-83.44,186.002-186.002S358.561,69.997,255.999,69.997z" id="id_117"></path>
<path style="fill:#86D6F2;" d="M255.999,69.997v372.004c102.562,0,186.002-83.44,186.002-186.002S358.561,69.997,255.999,69.997z" id="id_118"></path>
<path style="fill: rgb(74, 138, 186);" d="M426.412,426.411l-64.15-5.83l19.418,23.293C292.1,504.06,173.142,492.756,96.193,415.806
	C23.919,343.534,9.127,231.342,60.219,142.977L34.248,127.96c-57.881,100.108-41.132,227.197,40.73,309.06
	c43.186,43.186,100.462,69.546,161.277,74.224c6.568,0.505,13.131,0.756,19.68,0.756c51.747,0,102.464-15.647,145.052-44.961
	l19.617,23.533L426.412,426.411z" id="id_119"></path>
<path style="fill: rgb(32, 153, 245);" d="M437.021,74.978C393.835,31.792,336.559,5.433,275.744,0.756
	c-58.466-4.497-116.751,11.187-164.729,44.21L91.394,21.428l-5.806,64.16l64.15,5.829l-19.418-23.293
	c89.58-60.188,208.537-48.883,285.489,28.068c72.272,72.273,87.064,184.465,35.972,272.831l25.971,15.017
	C535.632,283.931,518.884,156.841,437.021,74.978z" id="id_120"></path>
<path style="fill:#ACE3FC;" d="M377.859,158.718c-12.752,5.898-28.145,10.797-45.228,14.485
	c-3.433-15.904-7.874-30.667-13.25-43.803c-2.963-7.238-6.171-13.86-9.594-19.843C336.745,119.49,360.222,136.671,377.859,158.718z" id="id_121"></path>
<g>
	<path style="fill:#CCEFFF;" d="M255.999,99.998c15.912,0,36.174,28.498,47.122,78.148c-15.121,1.86-30.995,2.853-47.122,2.853
		s-32.001-0.993-47.122-2.853C219.825,128.496,240.087,99.998,255.999,99.998z" id="id_122"></path>
	<path style="fill:#CCEFFF;" d="M202.213,109.557c-3.423,5.983-6.63,12.604-9.594,19.843c-5.377,13.136-9.818,27.899-13.25,43.803
		c-17.083-3.688-32.476-8.586-45.228-14.485C151.777,136.671,175.254,119.49,202.213,109.557z" id="id_123"></path>
	<path style="fill:#CCEFFF;" d="M117.605,327.932c-11.24-21.537-17.606-46.003-17.606-71.933s6.367-50.396,17.607-71.934
		c15.937,7.865,35.251,14.213,56.713,18.767c-2.183,17.025-3.319,34.901-3.319,53.167s1.136,36.142,3.319,53.167
		C152.856,313.72,133.542,320.068,117.605,327.932z" id="id_124"></path>
	<path style="fill:#CCEFFF;" d="M134.14,353.28c12.751-5.899,28.144-10.797,45.228-14.485c3.433,15.904,7.874,30.667,13.25,43.803
		c2.963,7.238,6.171,13.86,9.594,19.843C175.254,392.509,151.777,375.327,134.14,353.28z" id="id_125"></path>
	<path style="fill:#CCEFFF;" d="M255.999,412.001c-15.912,0-36.175-28.498-47.122-78.147c15.121-1.86,30.995-2.854,47.122-2.854
		s32.001,0.994,47.122,2.854C292.175,383.503,271.911,412.001,255.999,412.001z" id="id_126"></path>
	<path style="fill:#CCEFFF;" d="M255.999,300.999c-17.916,0-35.448,1.114-52.148,3.221c-1.82-14.794-2.853-30.905-2.853-48.221
		s1.033-33.426,2.853-48.221c16.699,2.107,34.231,3.221,52.148,3.221s35.448-1.114,52.148-3.221
		c1.82,14.794,2.853,30.905,2.853,48.221s-1.033,33.426-2.853,48.221C291.448,302.113,273.915,300.999,255.999,300.999z" id="id_127"></path>
</g>
<g>
	<path style="fill:#ACE3FC;" d="M309.787,402.441c3.423-5.983,6.63-12.604,9.594-19.843c5.377-13.136,9.818-27.899,13.25-43.803
		c17.083,3.687,32.476,8.586,45.228,14.484C360.222,375.327,336.745,392.508,309.787,402.441z" id="id_128"></path>
	<path style="fill:#ACE3FC;" d="M337.681,309.167c2.183-17.025,3.319-34.901,3.319-53.168s-1.136-36.142-3.319-53.168
		c21.462-4.554,40.775-10.901,56.714-18.766c11.24,21.537,17.606,46.004,17.606,71.934s-6.367,50.396-17.607,71.934
		C378.456,320.068,359.143,313.72,337.681,309.167z" id="id_129"></path>
	<path style="fill:#ACE3FC;" d="M255.999,412.001c15.912,0,36.175-28.498,47.122-78.147c-15.121-1.86-30.995-2.854-47.122-2.854
		L255.999,412.001L255.999,412.001z" id="id_130"></path>
	<path style="fill:#ACE3FC;" d="M255.999,180.998c16.127,0,32.001-0.993,47.122-2.853c-10.948-49.649-31.21-78.148-47.122-78.148
		L255.999,180.998L255.999,180.998z" id="id_131"></path>
	<path style="fill:#ACE3FC;" d="M308.148,207.779C291.449,209.886,273.916,211,256,211V301c17.916,0,35.448,1.114,52.148,3.221
		c1.82-14.794,2.853-30.905,2.853-48.221S309.968,222.572,308.148,207.779z" id="id_132"></path>
</g>
<g>
</g>
<g>
</g>
<g>
</g>
<g>
</g>
<g>
</g>
<g>
</g>
<g>
</g>
<g>
</g>
<g>
</g>
<g>
</g>
<g>
</g>
<g>
</g>
<g>
</g>
<g>
</g>
<g>
</g>
</svg>